<?xml version="1.0" encoding="iso-8859-1"?>
<!-- Generator: Adobe Illustrator 19.1.0, SVG Export Plug-In . SVG Version: 6.00 Build 0)  -->
<svg version="1.1" id="Capa_1" xmlns="http://www.w3.org/2000/svg" xmlns:xlink="http://www.w3.org/1999/xlink" x="0px" y="0px"
	 viewBox="0 0 354.291 354.291" style="enable-background:new 0 0 354.291 354.291;" xml:space="preserve">
<g>
	<g>
		<path style="fill:#231F20;" d="M343.88,313.626H10.994c-5.717,0-10.411,4.676-10.411,10.411c0,5.717,4.694,10.411,10.411,10.411
			H343.88c5.717,0,10.411-4.676,10.411-10.411C354.291,318.303,349.615,313.626,343.88,313.626z"/>
		<path style="fill:#231F20;" d="M232.853,213.363h20.01v19.993c0,11.717,9.511,21.246,21.228,21.246
			c11.717,0,21.246-9.529,21.246-21.228v-19.993h19.993c11.717,0,21.246-9.546,21.246-21.246c0-11.699-9.529-21.228-21.246-21.228
			h-19.993v-20.01c0-11.699-9.529-21.228-21.246-21.228c-11.717,0-21.228,9.511-21.228,21.228v19.993h-20.01
			c-11.717,0-21.228,9.511-21.228,21.228S221.136,213.363,232.853,213.363z M232.853,188.536L232.853,188.536l37.656,0.018v-37.656
			c0-3.882,7.182-3.864,7.182,0v37.638h37.638c1.959,0,3.6,1.641,3.6,3.582c0,1.959-1.659,3.6-3.6,3.6h-37.638v37.638
			c0,3.882-7.182,3.9-7.182,0v-37.638h-37.656c-1.941,0-3.582-1.659-3.582-3.6S230.912,188.536,232.853,188.536z"/>
		<path style="fill:#231F20;" d="M0.918,287.599C0.353,288.887,0,290.281,0,291.781c0,5.735,4.694,10.411,10.411,10.411h203.685
			c5.717,0,10.411-4.676,10.411-10.411c0-1.553-0.388-2.982-1.006-4.305c-6.811-42.985-37.85-77.659-78.7-90.064
			c28.268-14.452,48.067-46.938,48.067-84.753c0-51.172-36.174-92.817-80.641-92.817c-44.485,0-80.659,41.644-80.659,92.817
			c0,37.815,19.816,70.301,48.085,84.753C38.767,209.816,7.676,244.543,0.918,287.599z M49.232,112.641
			c0-41.45,28.268-75.171,63.013-75.171s62.995,33.721,62.995,75.171s-28.251,75.171-62.995,75.171S49.232,154.091,49.232,112.641z
			 M112.244,209.781c44.308,0,81.188,30.562,91.829,71.589H20.434C31.057,240.344,67.936,209.781,112.244,209.781z"/>
	</g>
</g>
<g>
</g>
<g>
</g>
<g>
</g>
<g>
</g>
<g>
</g>
<g>
</g>
<g>
</g>
<g>
</g>
<g>
</g>
<g>
</g>
<g>
</g>
<g>
</g>
<g>
</g>
<g>
</g>
<g>
</g>
</svg>
