<?xml version="1.0" encoding="iso-8859-1"?>
<!-- Generator: Adobe Illustrator 19.1.0, SVG Export Plug-In . SVG Version: 6.00 Build 0)  -->
<svg version="1.1" id="Capa_1" xmlns="http://www.w3.org/2000/svg" xmlns:xlink="http://www.w3.org/1999/xlink" x="0px" y="0px"
	 viewBox="0 0 401.917 401.917" style="enable-background:new 0 0 401.917 401.917;" xml:space="preserve">
<g>
	<g>
		<path style="fill:#231F20;" d="M318.241,333.16l-228.353-0.176C39.703,331.201,0,290.087,0,239.391
			c0-48.243,37.321-88.599,84.647-93.258c21.457-47.255,67.883-77.377,120.22-77.377c56.59,0,106.986,36.491,125.055,89.623
			c41.538,7.605,71.995,43.603,71.995,86.641c0,43.903-32.803,81.435-76.318,87.276C323.728,332.807,320.94,333.16,318.241,333.16z
			 M204.867,91.255c-45.438,0-85.511,27.404-102.098,69.806l-2.753,7.023l-7.535,0.141c-38.591,0.671-69.983,32.609-69.983,71.183
			c0,38.485,30.174,69.736,68.695,71.112l1.765,0.176l225.301-0.035c0.918,0,1.941-0.141,3.194-0.459
			c33.527-4.57,57.966-32.503,57.966-65.183c0-33.95-25.445-62.042-59.201-65.289l-7.676-0.741l-2.082-7.446
			C297.295,124.288,253.887,91.255,204.867,91.255z"/>
		<path style="fill:#231F20;" d="M273.297,235.262c-2.929-5.488-9.776-7.552-15.228-4.606l-36.774,19.728V132.758
			c0-6.211-5.047-11.24-11.258-11.24c-6.211,0-11.24,5.047-11.24,11.24v116.374l-35.944-21.934
			c-5.294-3.229-12.211-1.553-15.475,3.759c-3.229,5.294-1.553,12.228,3.741,15.475l53.061,32.345
			c1.8,1.094,3.829,1.641,5.858,1.641c1.818,0,3.653-0.441,5.311-1.341l53.343-28.586
			C274.179,247.561,276.244,240.732,273.297,235.262z"/>
	</g>
	<g>
	</g>
	<g>
	</g>
	<g>
	</g>
	<g>
	</g>
	<g>
	</g>
	<g>
	</g>
	<g>
	</g>
	<g>
	</g>
	<g>
	</g>
	<g>
	</g>
	<g>
	</g>
	<g>
	</g>
	<g>
	</g>
	<g>
	</g>
	<g>
	</g>
</g>
<g>
</g>
<g>
</g>
<g>
</g>
<g>
</g>
<g>
</g>
<g>
</g>
<g>
</g>
<g>
</g>
<g>
</g>
<g>
</g>
<g>
</g>
<g>
</g>
<g>
</g>
<g>
</g>
<g>
</g>
</svg>
