<?xml version="1.0" encoding="iso-8859-1"?>
<!-- Generator: Adobe Illustrator 19.1.0, SVG Export Plug-In . SVG Version: 6.00 Build 0)  -->
<svg version="1.1" id="Capa_1" xmlns="http://www.w3.org/2000/svg" xmlns:xlink="http://www.w3.org/1999/xlink" x="0px" y="0px"
	 viewBox="0 0 390.8 390.8" style="enable-background:new 0 0 390.8 390.8;" xml:space="preserve">
<g>
	<g>
		<path style="fill:#231F20;" d="M306.952,334.669L306.952,334.669c-2.347,0-4.853-0.353-7.482-1.041l-38.168-12.07
			c-7.764-3.035-12.687-7.341-15.105-12.952c-2.523-5.876-2.188-12.634,1.023-20.628l15.899-50.343
			c3.706-16.34,13.605-23.081,28.48-17.681l38.538,12.176c7.358,2.047,12.334,5.541,14.946,10.623
			c3.617,7.058,1.535,15.069-1.253,22.675l-16.093,50.943C323.716,332.234,312.987,334.669,306.952,334.669z M282.513,233.929
			c-2.065,0-3.512,4.906-4.182,7.835l-16.269,51.561c-1.271,3.212-2.329,6.829-1.376,9.052c0.865,2.012,3.67,3.459,5.876,4.341
			l37.285,11.77c0.953,0.229,2.259,0.3,3.106,0.424c1.553,0,3.882-0.035,5.629-6.829l16.34-51.702
			c2.717-7.447,2.488-9.688,2.135-10.376c-0.335-0.671-1.941-1.765-5.4-2.735l-39.138-12.37
			C284.295,234.071,283.148,233.929,282.513,233.929z"/>
		<path style="fill:#231F20;" d="M340.779,231.071c-2.664,0-5.558-0.547-8.611-1.57l-43.603-13.781
			c-11.117-3.935-15.458-13.323-11.611-24.598c4.853-14.17,19.146-23.31,36.438-23.31c5.011,0,10.04,0.794,14.946,2.347
			c22.375,7.058,35.803,28.074,29.962,46.849C355.513,225.936,349.126,231.071,340.779,231.071z M313.393,183.568
			c-10.27,0-18.916,5.082-21.51,12.652c-1.2,3.512-0.706,3.688,1.694,4.535l43.514,13.764c1.923,0.653,3.053,0.794,3.688,0.794
			c0.759,0,1.518,0,2.453-2.982c3.212-10.34-5.77-22.745-19.64-27.139C320.222,184.115,316.799,183.568,313.393,183.568z"/>
		<path style="fill:#231F20;" d="M262.291,390.8L262.291,390.8c-10.34,0-14.187-10.358-15.634-14.258l-11.24-35.168
			c-1.641-3.953-1.253-8.929,1.288-12.723c3.388-5.029,9.917-6.864,16.64-4.411l48.808,15.422
			c7.746,1.906,9.864,7.094,10.393,10.005c1.2,6.582-3.3,12.352-7.905,15.564l-29.486,20.557
			C270.338,389.194,266.226,390.8,262.291,390.8z M250.663,339.91l10.887,31.48c0.635,1.676,1.147,2.7,1.518,3.317
			c0.635-0.3,1.606-0.829,3.017-1.835l27.721-19.322L250.663,339.91z"/>
		<path style="fill:#231F20;" d="M269.314,132.414H87.898c-6.547,0-11.893,4.606-11.893,10.252l0,0
			c0,5.629,5.347,10.252,11.893,10.252h181.416c6.547,0,11.893-4.606,11.893-10.252l0,0
			C281.19,137.037,275.843,132.414,269.314,132.414L269.314,132.414z"/>
		<path style="fill:#231F20;" d="M242.863,199.432H88.41c-5.576,0-10.129,4.747-10.129,10.552l0,0
			c0,5.805,4.553,10.552,10.129,10.552h154.471c5.576,0,10.129-4.747,10.129-10.552l0,0
			C252.992,204.179,248.439,199.432,242.863,199.432L242.863,199.432z"/>
		<path style="fill:#231F20;" d="M222.8,270.668H90.175c-4.782,0-8.682,4.747-8.682,10.552l0,0c0,5.805,3.917,10.552,8.682,10.552
			H222.8c4.782,0,8.699-4.747,8.699-10.552l0,0C231.499,275.414,227.582,270.668,222.8,270.668L222.8,270.668z"/>
		<path style="fill:#231F20;" d="M323.734,85.299l-68.13-71.571C244.522,2.329,240.834,0.406,222.235,0H87.563
			C72.035,0,57.918,6.352,47.702,16.569C37.485,26.786,31.132,40.903,31.132,56.431v254.204c0,15.528,6.352,29.645,16.569,39.862
			s24.333,16.569,39.862,16.569h145.418l-8.77-21.916H87.563c-9.476,0-18.105-3.882-24.369-10.146
			c-6.264-6.264-10.146-14.893-10.146-24.369V56.431c0-9.476,3.882-18.105,10.146-24.369s14.893-10.146,24.369-10.146h149.318
			c-1.147,24.228-1.376,61.389,7.199,71.395c8.558,10.005,43.197,11.434,67.283,9.229l0.688,55.46
			c7.235,0.547,15.634,2.1,23.275,5.788v-44.979C335.503,103.916,332.662,92.905,323.734,85.299z M256.627,82.458
			c-5.276-6.511-3.635-47.096-3.635-47.096c0-7.058,37.921,36.544,47.785,50.555C304.041,90.575,261.832,88.882,256.627,82.458z"/>
	</g>
	<g>
	</g>
	<g>
	</g>
	<g>
	</g>
	<g>
	</g>
	<g>
	</g>
	<g>
	</g>
	<g>
	</g>
	<g>
	</g>
	<g>
	</g>
	<g>
	</g>
	<g>
	</g>
	<g>
	</g>
	<g>
	</g>
	<g>
	</g>
	<g>
	</g>
</g>
<g>
</g>
<g>
</g>
<g>
</g>
<g>
</g>
<g>
</g>
<g>
</g>
<g>
</g>
<g>
</g>
<g>
</g>
<g>
</g>
<g>
</g>
<g>
</g>
<g>
</g>
<g>
</g>
<g>
</g>
</svg>
