<?xml version="1.0" encoding="iso-8859-1"?>
<!-- Generator: Adobe Illustrator 19.1.0, SVG Export Plug-In . SVG Version: 6.00 Build 0)  -->
<svg version="1.1" id="Capa_1" xmlns="http://www.w3.org/2000/svg" xmlns:xlink="http://www.w3.org/1999/xlink" x="0px" y="0px"
	 viewBox="0 0 335.357 335.357" style="enable-background:new 0 0 335.357 335.357;" xml:space="preserve">
<g>
	<path style="fill:#231F20;" d="M275.803,304.539c-28.057,0-51.825-19.499-57.86-46.391l-98.251-16.781
		c-13.181,12.546-30.668,19.675-48.737,19.675C31.833,261.024,0,229.209,0,190.089s31.833-70.936,70.953-70.936
		c12.864,0,25.357,3.529,36.421,10.217l95.181-54.684c2.612-25.357,22.834-43.867,47.326-43.867
		c26.327,0,47.749,21.404,47.749,47.749s-21.422,47.767-47.749,47.767c-6.564,0-12.952-1.376-19.057-4.094l-90.875,52.178
		c1.182,4.853,1.818,9.546,1.923,14.187l90.787,15.528c11.276-11.981,26.716-18.757,43.126-18.757
		c32.856,0,59.572,26.716,59.572,59.59S308.641,304.539,275.803,304.539z M116.515,222.398c0.512,0,1.023,0.053,1.535,0.124
		l109.386,18.669c4.041,0.688,7.129,4.006,7.57,8.082c2.223,21.069,19.763,36.985,40.815,36.985
		c22.763,0,41.291-18.528,41.291-41.291s-18.51-41.291-41.291-41.291c-12.617,0-24.404,5.841-32.362,16.005
		c-2.065,2.665-5.417,3.882-8.735,3.388l-104.092-17.787c-4.747-0.812-8.046-5.153-7.57-9.935c0.018-0.088,0.282-2.294,0.282-2.4
		c0.124-0.935,0.282-1.853,0.282-2.841c0-5.382-1.006-10.958-3.088-17.028c-1.447-4.164,0.265-8.735,4.059-10.923l101.41-58.249
		c2.841-1.623,6.317-1.641,9.14,0.018c19.851,11.523,44.185-4.023,44.185-25.357c0-16.234-13.217-29.451-29.468-29.451
		s-29.468,13.217-29.468,29.451c0.159,3.423-1.465,7.782-4.429,9.511l-104.357,59.943c-3.106,1.8-6.988,1.623-9.917-0.512
		c-9.123-6.6-19.763-10.076-30.739-10.076c-29.045,0-52.672,23.628-52.672,52.655s23.628,52.655,52.672,52.655
		c14.822,0,28.604-6.158,38.785-17.363C111.503,223.474,113.956,222.398,116.515,222.398z"/>
	<g>
	</g>
	<g>
	</g>
	<g>
	</g>
	<g>
	</g>
	<g>
	</g>
	<g>
	</g>
	<g>
	</g>
	<g>
	</g>
	<g>
	</g>
	<g>
	</g>
	<g>
	</g>
	<g>
	</g>
	<g>
	</g>
	<g>
	</g>
	<g>
	</g>
</g>
<g>
</g>
<g>
</g>
<g>
</g>
<g>
</g>
<g>
</g>
<g>
</g>
<g>
</g>
<g>
</g>
<g>
</g>
<g>
</g>
<g>
</g>
<g>
</g>
<g>
</g>
<g>
</g>
<g>
</g>
</svg>
